# AST/ASF file generated using VICON BodyLanguage
# -----------------------------------------------
:version 1.10
:name VICON
:units
  mass 1.0
  length 0.45
  angle deg
:documentation
   .ast/.asf automatically generated from VICON data using
   VICON BodyBuilder and BodyLanguage model FoxedUp or BRILLIANT.MOD
:root
   order TX TY TZ RX RY RZ
   axis XYZ
   position 0 0 0  
   orientation 0 0 0 
:bonedata
  begin
     id 1 
     name lhipjoint
     direction 0.643272 -0.706573 0.294883 
     length 2.58915 
     axis 0 0 0  XYZ
  end
  begin
     id 2 
     name lfemur
     direction 0.34202 -0.939693 0  
     length 7.06802  
     axis 0 0 20  XYZ
    dof rx ry rz
    limits (-160.0 20.0)
           (-70.0 70.0)
           (-60.0 70.0)
  end
  begin
     id 3 
     name ltibia
     direction 0.34202 -0.939693 0   
     length 7.94147   
     axis 0 0 20   XYZ
    dof rx
    limits (-10.0 170.0)
  end
  begin
     id 4 
     name lfoot
     direction 0.0435058 -0.119531 0.991877   
     length 1.8399   
     axis -90 7.62852e-016 20   XYZ
    dof rx rz
    limits (-45.0 90.0)
           (-70.0 20.0)
  end
  begin
     id 5 
     name ltoes
     direction 1.53505e-011 -4.22157e-011 1   
     length 0.934412   
     axis -90 7.62852e-016 20   XYZ
    dof rx
    limits (-90.0 20.0)
  end
  begin
     id 6 
     name rhipjoint
     direction -0.636801 -0.711547 0.296959   
     length 2.57105  
     axis 0 0 0  XYZ 
  end
  begin
     id 7 
     name rfemur
     direction -0.34202 -0.939693 0   
     length 7.03285   
     axis 0 0 -20   XYZ
    dof rx ry rz
    limits (-160.0 20.0)
           (-70.0 70.0)
           (-70.0 60.0)
  end
  begin
     id 8 
     name rtibia
     direction -0.34202 -0.939693 0   
     length 7.99111   
     axis 0 0 -20   XYZ
    dof rx
    limits (-10.0 170.0)
 end
 begin
     id 9 
     name rfoot
     direction -0.0783088 -0.215152 0.973436   
     length 1.98785  
     axis -90 -7.62852e-016 -20   XYZ
    dof rx rz
    limits (-45.0 90.0)
           (-20.0 70.0)
  end
  begin
     id 10 
     name rtoes
     direction -1.53606e-011 -4.21943e-011 1   
     length 1.001   
     axis -90 -7.62852e-016 -20   XYZ
    dof rx
    limits (-90.0 20.0)
  end
  begin
     id 11 
     name lowerback
     direction 0.00141527 0.998403 -0.0564763   
     length 2.30486   
     axis 0 0 0   XYZ
    dof rx ry rz
    limits (-20.0 45.0)
           (-30.0 30.0)
           (-30.0 30.0)
  end
  begin
     id 12 
     name upperback
     direction 0.0125137 0.999915 0.00361315   
     length 2.30697   
     axis 0 0 0   XYZ
    dof rx ry rz
    limits (-20.0 45.0)
           (-30.0 30.0)
           (-30.0 30.0)
  end
  begin
     id 13 
     name thorax
     direction 0.0136417 0.999471 0.0295116   
     length 2.31005   
     axis 0 0 0   XYZ
    dof rx ry rz
    limits (-20.0 45.0)
           (-30.0 30.0)
           (-30.0 30.0)
  end
  begin
     id 14 
     name lowerneck
     direction 0.0766806 0.997047 0.00422047   
     length 1.68825   
     axis 0 0 0   XYZ
    dof rx ry rz
    limits (-20.0 45.0)
           (-30.0 30.0)
           (-30.0 30.0)
  end
  begin
     id 15 
     name upperneck
     direction -0.143512 0.985106 -0.0947088   
     length 1.69772   
     axis 0 0 0   XYZ
    dof rx ry rz
    limits (-20.0 45.0)
           (-30.0 30.0)
           (-30.0 30.0)
  end
  begin
     id 16
     name head
     direction -0.0539128 0.997849 -0.0372864  
     length 1.71187  
     axis 0 0 0   XYZ
    dof rx ry rz
    limits (-20.0 45.0)
           (-30.0 30.0)
           (-30.0 30.0)
  end
  begin
     id 17 
     name lclavicle
     direction 0.978251 0.207416 -0.00165765  
     length 3.35399  
     axis 0 0 0   XYZ
    dof ry rz
    limits (-20.0 10.0)
           (0.0 20.0)
  end
  begin
     id 18 
     name lhumerus
     direction 1 -4.48966e-011 -1.32191e-028   
     length 5.70706   
     axis 180 -30 -90   XYZ
    dof rx ry rz
    limits (-60.0 90.0)
           (-90.0 90.0)
           (-90.0 90.0)
  end
  begin
     id 19
     name lradius
     direction 1 -4.48976e-011 9.36106e-027   
     length 3.33243   
     axis 180 -30 -90   XYZ
    dof rx
    limits (-10.0 170.0)
  end
  begin
     id 20
     name lwrist
     direction 1 -4.48976e-011 1.1555e-026   
     length 1.66621   
     axis -5.7412e-015 90 90   XYZ
    dof ry
    limits (-180.0 0.0)
 end
  begin
     id 21 
     name lhand
     direction 1 -4.48939e-011 2.31113e-026   
     length 0.792687   
     axis -1.47463e-014 90 90   XYZ
    dof rx rz
    limits (-90.0 90.0)
           (-45.0 45.0)
  end
  begin
     id 22 
     name lfingers
     direction 1 -4.48866e-011 4.62274e-026   
     length 0.639085   
     axis -2.94925e-014 90 90   XYZ
    dof rx
    limits (0.0 90.0)
  end
  begin
     id 23
     name lthumb
     direction 0.707107 -6.34847e-011 0.707107   
     length 0.917601   
     axis -90 45 -6.68868e-015   XYZ
    dof rx rz
    limits (-45.0 45.0)
           (-45.0 45.0)
  end
  begin
     id 24 
     name rclavicle
     direction -0.981813 0.185514 0.0403428   
     length 3.47271  
     axis 0 0 0   XYZ 
    dof ry rz
    limits (-10.0 20.0)
           (-20.0 0.0)
  end
  begin
     id 25 
     name rhumerus
     direction -1 -4.48972e-011 -6.58544e-029  
     length 5.88176   
     axis 180 30 90   XYZ
    dof rx ry rz
    limits (-90.0 60.0)
           (-90.0 90.0)
           (-90.0 90.0)
  end
  begin
     id 26 
     name rradius
     direction -1 -4.48964e-011 8.36306e-027   
     length 3.28156   
     axis 180 30 90   XYZ
    dof rx
    limits (-10.0 170.0)
  end
  begin
     id 27 
     name rwrist
     direction -1 -4.48903e-011 1.15562e-026   
     length 1.64078   
     axis -5.7412e-015 -90 -90   XYZ
    dof ry
    limits (-180.0 0.0)
  end
  begin
     id 28
     name rhand
     direction -1 -4.49055e-011 2.31074e-026   
     length 0.863125   
     axis -1.47463e-014 -90 -90   XYZ
    dof rx rz
    limits (-90.0 90.0)
           (-45.0 45.0)
  end
  begin
     id 29
     name rfingers
     direction -1 -4.48994e-011 4.62188e-026   
     length 0.695873   
     axis -2.94925e-014 -90 -90   XYZ
    dof rx
    limits (0.0 90.0)
  end
  begin
     id 30
     name rthumb
     direction -0.707107 -6.35058e-011 0.707107   
     length 0.999139   
     axis -90 -45 6.68868e-015   XYZ
    dof rx rz
    limits (-45.0 45.0)
           (-45.0 45.0)
  end
:hierarchy
  begin
    root lhipjoint rhipjoint lowerback
    lhipjoint lfemur
    lfemur ltibia
    ltibia lfoot
    lfoot ltoes
    rhipjoint rfemur
    rfemur rtibia
    rtibia rfoot
    rfoot rtoes
    lowerback upperback
    upperback thorax
    thorax lowerneck lclavicle rclavicle
    lowerneck upperneck
    upperneck head
    lclavicle lhumerus
    lhumerus lradius
    lradius lwrist
    lwrist lhand lthumb
    lhand lfingers
    rclavicle rhumerus
    rhumerus rradius
    rradius rwrist
    rwrist rhand rthumb
    rhand rfingers
  end

#!OML:ASF \\Waltz\H\Terrain\Patient Classification 1\Animal2\Wednesday\Animal2.ASF
:FULLY-SPECIFIED
:DEGREES
954
root 0.397137 16.932 -7.76233 1.0316 -5.18545 -5.15127
lowerback 8.12621 -2.36052 7.70274
upperback -0.832429 -2.22467 2.83397
thorax -5.63264 -1.28529 -1.05876
lowerneck 9.73175 7.1764 15.7318
upperneck -13.5775 9.36582 -22.0278
head -3.63078 5.38072 -10.1538
rclavicle -8.84592e-015 -9.54166e-015
rhumerus 22.456 41.2547 -55.0607
rradius 98.8312
rwrist -22.5509
rhand -12.1966 15.3477
rfingers 7.12502
rthumb 13.8675 -14.17
lclavicle -8.84592e-015 -9.54166e-015
lhumerus 19.7037 12.3354 12.1341
lradius 84.8676
lwrist -0.313657
lhand -49.7226 17.1105
lfingers 7.12502
lthumb -22.3228 45.841
rfemur -12.3326 -2.42972 29.9166
rtibia 42.5067
rfoot -30.2167 -0.409547
rtoes 29.9776
lfemur -25.8665 1.79559 -5.63383
ltibia 59.796
lfoot -27.0895 -0.019478
ltoes -22.7521
955
root 0.399212 16.957 -7.73252 1.07022 -4.47614 -5.01367
lowerback 7.95572 -2.26885 7.54665
upperback -0.841381 -2.13963 2.74806
thorax -5.53522 -1.23787 -1.08067
lowerneck 9.26085 6.82474 15.7122
upperneck -13.2341 8.89458 -21.6395
head -3.56978 5.09834 -9.97732
rclavicle -5.59579e-014 -1.59028e-015
rhumerus 21.6878 40.6662 -55.5518
rradius 99.0463
rwrist -22.5797
rhand -12.7086 15.2143
rfingers 7.12502
rthumb 13.3741 -14.3365
lclavicle -5.59579e-014 -1.59028e-015
lhumerus 20.7942 12.5098 12.1632
lradius 84.3658
lwrist -0.112298
lhand -49.6556 16.5478
lfingers 7.12502
lthumb -22.2585 45.286
rfemur -11.94 -2.88479 29.7271
rtibia 41.797
rfoot -29.9153 -0.358063
rtoes 30.2815
lfemur -26.473 1.87385 -6.49274
ltibia 59.7083
lfoot -27.2405 0.284324
ltoes -25.5415
956
root 0.399253 16.9838 -7.70536 1.18303 -3.86674 -5.17439
lowerback 7.84378 -2.20819 7.62431
upperback -0.890662 -2.05675 2.80009
thorax -5.51876 -1.19915 -1.08303
lowerneck 8.71051 6.52508 15.6944
upperneck -12.8196 8.47289 -21.452
head -3.45004 4.84992 -9.8622
rclavicle 8.00108e-015 -7.15625e-015
rhumerus 21.1086 40.2825 -55.9328
rradius 99.2958
rwrist -22.6999
rhand -13.5669 14.8885
rfingers 7.12502
rthumb 12.5467 -14.7148
lclavicle 8.00108e-015 -7.15625e-015
lhumerus 21.5825 12.7578 12.0808
lradius 84.0254
lwrist 0.453204
lhand -48.9379 16.6468
lfingers 7.12502
lthumb -21.5694 45.4656
rfemur -11.5981 -2.97448 29.9403
rtibia 41.0706
rfoot -29.6598 -0.681181
rtoes 30.2783
lfemur -27.1004 2.03452 -6.93585
ltibia 59.4844
lfoot -27.2845 0.470164
ltoes -27.8377
957
root 0.398844 17.0147 -7.67285 1.18412 -3.42956 -5.28241
lowerback 7.74094 -2.13027 7.6534
upperback -0.863479 -1.96069 2.83796
thorax -5.42386 -1.1491 -1.07692
lowerneck 8.27833 6.25636 15.579
upperneck -12.5706 8.0776 -21.2447
head -3.39826 4.62456 -9.73997
rclavicle 1.08338e-014 1.43125e-014
rhumerus 20.7841 39.9511 -56.2
rradius 99.4946
rwrist -22.9473
rhand -13.8294 14.9053
rfingers 7.12502
rthumb 12.2936 -14.7133
lclavicle 1.08338e-014 1.43125e-014
lhumerus 22.1353 12.959 11.8521
lradius 83.6675
lwrist 0.646398
lhand -48.6114 17.813
lfingers 7.12502
lthumb -21.2558 46.6674
rfemur -11.0951 -2.87791 30.0939
rtibia 40.3001
rfoot -29.3054 -1.39002
rtoes 29.1669
lfemur -27.4414 2.24652 -7.38999
ltibia 59.1381
lfoot -27.3029 0.0705658
ltoes -28.7212
958
root 0.405187 17.0493 -7.63215 1.08484 -2.93879 -5.18575
lowerback 7.53654 -2.06915 7.58339
upperback -0.738578 -1.91812 2.78374
thorax -5.17149 -1.11771 -1.11158
lowerneck 7.87352 6.01749 15.4133
upperneck -12.426 7.72223 -20.9057
head -3.38163 4.41575 -9.57054
rclavicle -1.9456e-014 5.96354e-015
rhumerus 20.5999 39.4483 -56.4023
rradius 99.5625
rwrist -23.1645
rhand -13.3784 15.4765
rfingers 7.12502
rthumb 12.7284 -14.1155
lclavicle -1.9456e-014 5.96354e-015
lhumerus 22.7289 13.2037 11.6251
lradius 83.22
lwrist 0.671408
lhand -48.6454 18.6633
lfingers 7.12502
lthumb -21.2884 47.5141
rfemur -10.4191 -2.99906 29.9296
rtibia 39.5023
rfoot -28.9127 -1.56074
rtoes 28.6812
lfemur -27.6205 2.31416 -8.04874
ltibia 58.7385
lfoot -27.3777 -0.826841
ltoes -27.4959
959
root 0.414864 17.0805 -7.5935 1.05997 -2.33879 -5.35087
lowerback 7.39113 -2.03086 7.80842
upperback -0.734106 -1.86147 2.78878
thorax -5.08814 -1.09341 -1.24308
lowerneck 7.79966 5.73077 15.2195
upperneck -12.442 7.33299 -20.4397
head -3.48198 4.20049 -9.37874
rclavicle -2.7482e-014 1.51076e-014
rhumerus 20.1137 38.9959 -56.6956
rradius 99.6583
rwrist -23.2059
rhand -12.9222 15.9915
rfingers 7.12502
rthumb 13.1682 -13.5726
lclavicle -2.7482e-014 1.51076e-014
lhumerus 23.4298 13.3538 11.6018
lradius 82.6885
lwrist 0.911927
lhand -48.5532 18.7959
lfingers 7.12502
lthumb -21.1999 47.6567
rfemur -9.83248 -3.25831 30.048
rtibia 38.7168
rfoot -28.6428 -1.70567
rtoes 28.3816
lfemur -27.8996 2.30205 -8.34969
ltibia 58.2982
lfoot -27.3219 -1.97898
ltoes -24.6914
